<?xml version="1.0" encoding="utf-8"?>
<!-- Generator: Adobe Illustrator 27.5.0, SVG Export Plug-In . SVG Version: 6.00 Build 0)  -->
<svg version="1.1" id="Layer_1" xmlns="http://www.w3.org/2000/svg" xmlns:xlink="http://www.w3.org/1999/xlink" x="0px" y="0px"
	 viewBox="0 0 540 500" style="enable-background:new 0 0 540 500;" xml:space="preserve">
<style type="text/css">
	.st0{fill:#A420E2;}
	.st1{fill:#CCDDEE;}
	.st2{fill:#49C0B0;}
	.st3{fill:#1B6C82;}
	.st4{fill:#88E0F2;}
	.st5{fill:#171612;}
	.st6{fill:#5E52E3;}
	.st7{fill:#632829;}
	.st8{fill:#FFFFFF;}
	.st9{fill:none;}
	.st10{fill:#B15F4F;}
	.st11{opacity:0.5;}
	.st12{fill:#5A554D;}
	.st13{fill:#898CF8;}
	.st14{fill:#1C2B74;}
	.st15{fill:#314FA5;}
</style>
<g id="BACKGROUND">
</g>
<path class="st0" d="M227.5,158.2c-2.8,2-5.8,3.3-9.2,3.2c-12.1-0.5-22.3-5.1-29.1-15.4c-4.6-7-5.9-15-4.5-23.4
	c0.9-5.4,2.6-10.3,5.7-14.8c0.9-1.3,1.6-2.8,2-4.3c1.9-7.4,6-12.8,13.4-15.4c3.1-1.1,6.2-2.1,9.3-3.2c4-1.5,8.1-3,11.9-4.9
	c4.9-2.4,8.7-6.4,12.7-10.1c2.9-2.7,6.1-4.9,9.8-6c2-0.6,4.3-0.9,6.3-0.6c7,1,12.8,4.3,17.3,9.7c1.1,1.4,2.2,2.8,3.3,4.2
	c4.3,5.7,4.1,12.1,2.9,18.7c-1.3,7.2-5.8,12.4-10.3,17.6c-3.4,3.8-7.1,7.1-10.9,10.6c-7.3,6.8-13.6,14.3-19.7,22.1
	c-2.3,3-4.8,5.8-7.3,8.6C230.1,156,228.8,157,227.5,158.2z"/>
<path class="st1" d="M361.1,351.3c-26.5-16.1-56.7-33.2-82.9-56.2c-6.7-5.9-13.8-8.2-22-6.6c-9.6,1.9-19.4,3.8-28.2,7.7
	c-27.2,12.4-50.9,6.5-73.1-11.6c-11.8-9.6-23.8-19-29.5-33.7c-2.6-6.6-5-13.4-6.2-20.3c-4.1-23.4-8.9-46.8-11-70.4
	c-1.8-20,3.8-38.9,18.8-53.7c18.1-17.8,48.3-20.5,71.8-6.6c16.2,9.7,31.8,20.7,48.7,28.9c29.2,14.3,60.4,22.1,92.8,25.4
	c23.7,2.4,47.3,5.3,69.9,13.4c45.9,16.5,77.6,46.2,87.9,95.3c3.9,18.6,3.4,38.1-4,55.2c-9.2,21.4-25.5,37.4-49.5,43.2
	C416.9,368,390.3,364.5,361.1,351.3z"/>
<path class="st0" d="M451.5,360.7c3.6-3,7-6.1,10.8-9c4.8-3.7,9.8-7.1,14.6-10.8c6.6-5,13.1-10.1,19.6-15.3c0.8-0.6,1.4-1.5,2-2.2
	c0.6-0.7,1.1-1.4,2.1-0.9c1,0.5,0.8,1.4,0.5,2.2c-2.8,7.7-5.9,15.2-11.1,21.8c-6.6,8.3-14,15.8-23,21.5c-2.2,1.5-4.7,2.6-7.1,3.8
	c-2.8,1.4-5.5,2.9-8.3,4.2c-2.7,1.2-5.6,2.1-8.4,3.1c-1.8,0.6-3.3,0.1-5-1c-5.4-3.7-7.9-9.3-9.9-15.2c-0.7-2-1.1-4-1.7-6.1
	c-2.2-8-0.8-15.7,1.6-23.4c0.7-2.2,1.9-4.2,2.8-6.4c0.2-0.4,0.4-0.9,0.5-1.3c0.3-1.1,1.3-1.5,2.1-0.7c0.6,0.7,1.3,1.6,1.5,2.5
	c2,8.7,4,17.5,5.9,26.2c0.1,0.5,0.2,0.9,0.4,1.6c0.2-0.4,0.3-0.5,0.4-0.7c2.7-8.6,7.3-16.2,12.9-23.1c3.1-3.8,6.5-7.4,9.9-11
	c1.1-1.2,2.5-2.1,3.8-3c0.7-0.5,1.6-0.9,2.5-0.4c0.9,0.5,1.1,1.4,1,2.3c-0.2,1.4-0.4,2.8-1,4.1c-5.4,12.5-11.2,24.8-19.1,36
	c-0.2,0.4-0.5,0.7-0.7,1.1C451.4,360.6,451.4,360.7,451.5,360.7z"/>
<path class="st2" d="M70.5,154.4c-2.3-4.1-4.8-8.1-6.9-12.2c-2.8-5.4-5.2-10.9-7.9-16.3c-3.7-7.4-7.6-14.8-11.4-22.1
	c-0.5-0.9-1.2-1.6-1.8-2.4c-0.5-0.7-1.2-1.4-0.5-2.2c0.7-0.9,1.5-0.6,2.3-0.1c7.1,4.2,13.9,8.6,19.3,14.9
	c6.9,8.1,12.9,16.7,16.9,26.5c1,2.5,1.7,5.1,2.4,7.7c0.9,3,1.9,5.9,2.6,8.9c0.7,2.9,1.1,5.9,1.5,8.8c0.3,1.9-0.5,3.3-1.9,4.7
	c-4.7,4.6-10.6,6.1-16.8,6.9c-2.1,0.3-4.2,0.4-6.3,0.5c-8.2,0.7-15.6-2.1-22.7-5.9c-2-1.1-3.8-2.6-5.7-3.9c-0.4-0.3-0.8-0.6-1.2-0.8
	c-1-0.5-1.2-1.6-0.3-2.2c0.8-0.5,1.8-1,2.7-1c9-0.4,17.9-0.7,26.8-1c0.5,0,0.9,0,1.6-0.1c-0.3-0.3-0.4-0.4-0.6-0.5
	c-8-4.2-14.6-10.1-20.4-17c-3.2-3.8-6-7.8-9-11.8c-0.9-1.3-1.6-2.8-2.3-4.3c-0.4-0.8-0.6-1.7,0.1-2.5c0.6-0.8,1.6-0.9,2.4-0.6
	c1.3,0.5,2.7,0.9,3.8,1.7c11.3,7.6,22.3,15.6,31.8,25.4C69.8,153.9,70.1,154.2,70.5,154.4C70.5,154.5,70.5,154.4,70.5,154.4z"/>
<g>
	<path class="st2" d="M427.7,98.2c5.7-6.2,11.9-11.8,19.8-15c4.9-2,10.1-3.2,15.3-4.2c5.3-0.9,10.8-1.1,16.2-1.6c0.5,0,1-0.1,1.3,0
		c0.6,0.2,1.4,0.6,1.5,1.1c0.1,0.5-0.4,1.2-0.7,1.8c-0.1,0.2-0.3,0.2-0.5,0.3c-7.6,4.1-14.8,9.3-23,12.2c-6.1,2.2-12.3,4.1-18.5,6.2
		c-3.1,1.1-6.2,2.2-9.3,3.4c-1.6,0.6-2.7,0.5-3.6-0.7c-0.9-1.2,0-2.1,0.8-3C427.3,98.7,427.5,98.4,427.7,98.2z"/>
	<path class="st2" d="M437,114.8c-2.4,3.6-5.9,5.9-9.8,7.6c-2,0.9-3,0.3-3.4-1.8c-0.5-3.2,0.8-6,2.4-8.6c3.1-4.9,8-7.7,13.1-10.1
		c0.5-0.3,1.7-0.2,2,0.2c0.5,0.5,0.7,1.6,0.5,2.3C440.9,108.2,439.3,111.7,437,114.8z"/>
	<path class="st2" d="M440.8,117.8c4.4-5.9,9.6-9.9,16.3-12c0.4-0.1,0.8-0.3,1.1-0.3c0.6,0.1,1.4,0.2,1.7,0.6c0.3,0.5,0.3,1.4,0,1.9
		c-0.5,0.9-1.3,1.6-2.1,2.2c-5.5,4.1-10.9,8.2-16.4,12.3c-0.2,0.2-0.4,0.4-0.6,0.4c-0.6,0-1.4,0.2-1.8-0.2c-0.3-0.3-0.4-1.3-0.2-1.7
		C439.4,119.8,440.2,118.7,440.8,117.8z"/>
</g>
<g>
	<path class="st0" d="M436.5,199.3c-0.3-0.9-0.8-1.6-0.6-2c0.3-0.7,1-1.4,1.7-1.9c11.5-9.5,23.1-19,34.6-28.6
		c0.8-0.6,1.5-1.3,2.3-1.8c0.4-0.2,1.1,0,1.6,0c-0.1,0.6,0,1.3-0.3,1.8c-0.3,0.5-1,0.9-1.5,1.3c-12.1,10-24.2,20-36.2,30
		C437.8,198.4,437.4,198.7,436.5,199.3z"/>
	<path class="st0" d="M447.9,207.8c-0.2-0.9-0.6-1.7-0.4-2.2c0.2-0.6,0.9-1.2,1.4-1.6c10.3-8.8,20.6-17.6,30.9-26.3
		c0.8-0.7,1.8-2.1,2.9-0.8c1,1.2-0.6,1.9-1.4,2.5c-10.6,9.1-21.2,18.2-31.8,27.3C449.1,207,448.7,207.2,447.9,207.8z"/>
	<path class="st0" d="M433.5,193.7c-0.2-1-0.6-1.7-0.4-2.2c0.2-0.6,0.8-1.2,1.4-1.7c9.9-8.6,19.9-17.1,29.8-25.6
		c0.7-0.6,1.5-1.1,2.3-1.5c0.4-0.2,1.2,0,1.5,0.3c0.2,0.1-0.1,0.9-0.3,1.4c-0.1,0.2-0.4,0.3-0.5,0.5c-11.4,8.4-21.9,17.9-32.2,27.6
		C434.8,192.8,434.4,193.1,433.5,193.7z"/>
	<path class="st0" d="M442.5,202.3c-0.4-0.2-0.9-0.3-1-0.6c-0.1-0.4-0.2-1,0-1.3c0.6-0.7,1.3-1.3,2-1.9c10.1-8,20.2-15.9,30.3-23.9
		c0.5-0.4,1.4-0.2,2.1-0.3c-0.2,0.7-0.2,1.7-0.8,2.1c-5.3,4.4-10.7,8.6-16.1,12.9c-5.1,4-10.1,8-15.2,12
		C443.4,201.7,443,201.9,442.5,202.3z"/>
	<path class="st0" d="M460.2,162.1c-0.5,0.6-1,1.1-1.5,1.5c-7.5,6.4-15,12.8-22.5,19.3c-1.6,1.4-2.8,3.2-4.3,4.7
		c-0.4,0.4-1.2,0.5-1.8,0.8c0-0.7-0.3-1.5-0.1-2.1c0.3-0.8,1-1.5,1.7-2.2c8-8.2,16.7-15.5,25.8-22.5c0.5-0.4,1.3-0.5,2-0.6
		C459.6,161.1,459.9,161.7,460.2,162.1z"/>
</g>
<g>
	<path class="st0" d="M97.2,370.6c-0.8,0.3-1.6,0.8-2,0.6c-0.7-0.3-1.3-1-1.9-1.7c-9.5-11.5-19-23.1-28.5-34.6
		c-0.6-0.8-1.3-1.5-1.8-2.3c-0.2-0.4,0-1.1,0-1.6c0.6,0.1,1.3,0,1.8,0.3c0.5,0.3,0.9,1,1.3,1.5c10,12.1,20,24.2,30,36.2
		C96.3,369.3,96.6,369.7,97.2,370.6z"/>
	<path class="st0" d="M105.7,359.2c-0.9,0.2-1.7,0.6-2.2,0.4c-0.6-0.2-1.2-0.9-1.6-1.4c-8.8-10.3-17.6-20.6-26.3-30.9
		c-0.7-0.8-2.1-1.8-0.8-2.9c1.2-1,1.8,0.6,2.5,1.4c9.1,10.6,18.2,21.2,27.3,31.8C104.9,358,105.1,358.4,105.7,359.2z"/>
	<path class="st0" d="M91.6,373.6c-1,0.2-1.7,0.6-2.2,0.4c-0.6-0.2-1.2-0.8-1.7-1.4c-8.6-9.9-17.1-19.9-25.6-29.8
		c-0.6-0.7-1.1-1.5-1.5-2.3c-0.2-0.4,0-1.2,0.3-1.5c0.2-0.2,0.9,0.1,1.4,0.3c0.2,0.1,0.3,0.4,0.5,0.5c8.4,11.4,17.9,21.9,27.6,32.2
		C90.7,372.3,91,372.7,91.6,373.6z"/>
	<path class="st0" d="M100.2,364.6c-0.2,0.4-0.3,0.9-0.6,1c-0.4,0.1-1,0.2-1.3,0c-0.7-0.6-1.3-1.3-1.9-2
		c-8-10.1-15.9-20.2-23.9-30.3c-0.4-0.5-0.2-1.4-0.3-2.1c0.7,0.2,1.7,0.2,2.1,0.8c4.4,5.3,8.6,10.7,12.9,16.1c4,5.1,8,10.1,12,15.2
		C99.6,363.7,99.8,364.2,100.2,364.6z"/>
	<path class="st0" d="M60,346.9c0.5,0.5,1.1,1,1.5,1.5c6.4,7.5,12.8,15,19.3,22.5c1.4,1.6,3.2,2.8,4.7,4.3c0.4,0.4,0.5,1.2,0.8,1.8
		c-0.7,0-1.5,0.3-2.1,0.1c-0.8-0.3-1.5-1-2.2-1.7c-8.2-8-15.5-16.7-22.5-25.8c-0.4-0.5-0.5-1.3-0.5-2C59,347.5,59.6,347.3,60,346.9z
		"/>
</g>
<ellipse class="st1" cx="275.6" cy="429" rx="238.1" ry="10.8"/>
<g>
	<g>
		<g>
			<g>
				<g>
					<path class="st3" d="M430.6,426.8c0.3,0,0.6,0,0.9-0.2c1.2-0.5,1.8-1.8,1.3-3L386.5,306c-0.5-1.2-1.8-1.8-3-1.3s-1.8,1.8-1.3,3
						l46.3,117.6C428.8,426.2,429.7,426.8,430.6,426.8z"/>
				</g>
			</g>
		</g>
		<g>
			<g>
				<g>
					<path class="st3" d="M307.9,426.8c0.9,0,1.8-0.6,2.1-1.5l46.3-117.6c0.5-1.2-0.1-2.5-1.3-3s-2.5,0.1-3,1.3l-46.3,117.6
						c-0.5,1.2,0.1,2.5,1.3,3C307.3,426.7,307.6,426.8,307.9,426.8z"/>
				</g>
			</g>
		</g>
		<g>
			<g>
				<g>
					<path class="st3" d="M329.3,372.4c0.2,0,0.5,0,0.8-0.1l70.2-24.6c1.2-0.4,1.8-1.7,1.4-3c-0.4-1.2-1.7-1.8-3-1.4l-70.2,24.6
						c-1.2,0.4-1.8,1.7-1.4,3C327.5,371.8,328.4,372.4,329.3,372.4z"/>
				</g>
			</g>
		</g>
		<g>
			<g>
				<g>
					<path class="st3" d="M409.2,372.4c1,0,1.9-0.6,2.2-1.5c0.4-1.2-0.2-2.5-1.4-3l-70.2-24.6c-1.2-0.4-2.5,0.2-3,1.4
						c-0.4,1.2,0.2,2.5,1.4,3l70.2,24.6C408.7,372.3,408.9,372.4,409.2,372.4z"/>
				</g>
			</g>
		</g>
	</g>
	<g>
		<g>
			<g>
				<g>
					<path class="st3" d="M344,426.8c0.3,0,0.6,0,0.9-0.2c1.2-0.5,1.8-1.8,1.3-3L299.9,306c-0.5-1.2-1.8-1.8-3-1.3s-1.8,1.8-1.3,3
						l46.3,117.6C342.3,426.2,343.1,426.8,344,426.8z"/>
				</g>
			</g>
		</g>
		<g>
			<g>
				<g>
					<path class="st3" d="M221.4,426.8c0.9,0,1.8-0.6,2.1-1.5l46.3-117.6c0.5-1.2-0.1-2.5-1.3-3s-2.5,0.1-3,1.3l-46.3,117.6
						c-0.5,1.2,0.1,2.5,1.3,3C220.8,426.7,221.1,426.8,221.4,426.8z"/>
				</g>
			</g>
		</g>
		<g>
			<g>
				<g>
					<path class="st3" d="M242.8,372.4c0.2,0,0.5,0,0.8-0.1l70.2-24.6c1.2-0.4,1.8-1.7,1.4-3c-0.4-1.2-1.7-1.8-3-1.4L242,367.9
						c-1.2,0.4-1.8,1.7-1.4,3C240.9,371.8,241.8,372.4,242.8,372.4z"/>
				</g>
			</g>
		</g>
		<g>
			<g>
				<g>
					<path class="st3" d="M322.6,372.4c1,0,1.9-0.6,2.2-1.5c0.4-1.2-0.2-2.5-1.4-3l-70.2-24.6c-1.2-0.4-2.5,0.2-2.9,1.4
						c-0.4,1.2,0.2,2.5,1.4,3l70.2,24.6C322.1,372.3,322.4,372.4,322.6,372.4z"/>
				</g>
			</g>
		</g>
	</g>
	<g>
		<g>
			<path class="st2" d="M240.1,292.5c-6.7,9-3.3,21.9,7,26.4c31.4,13.7,95.6,34.5,140.8,1.5c2.5-1.8,4.9-3.8,7.2-5.9
				c0.8-0.7,1.6-1.5,2.4-2.2c45.4-44.4,2-111.8-11.1-129.9c-2-2.7-5.6-3.7-8.6-2.3c0,0,0,0,0,0c-0.6,0.3-1.2,0.5-1.8,0.8
				C306.3,212.2,260.3,265.3,240.1,292.5z"/>
		</g>
	</g>
	<g>
		<g>
			<g>
				<path class="st3" d="M394.6,211.1c8.1,16.1,16.9,40.3,13.3,63.7c-3.1,20.4-10.5,35.1-20.1,45.6c2.5-1.8,4.9-3.8,7.2-5.9
					c7.5-10.7,12.5-23.9,14.9-39.4c1.6-10.6,0.9-22.2-2.1-34.4c-2.4-9.8-6.2-20.1-11.5-30.5c-8.5-16.9-17.8-28.9-18.8-30.1
					c-0.6,0.3-1.2,0.5-1.8,0.8c0,0.1,0.1,0.2,0.2,0.4C376.1,181.4,385.9,193.5,394.6,211.1z"/>
			</g>
		</g>
	</g>
	<g>
		<g>
			<path class="st3" d="M362.2,214.4c0,0,20.7,64.5,2.8,87.7c-16.3,21-47.9,22.4-99.2-1.8c-7.4-3.5-10.8-6.1-6.6-12.7
				C292.9,248.1,327,215.8,362.2,214.4z"/>
		</g>
	</g>
</g>
<g>
	<g>
		<path class="st0" d="M222.1,244.6c0.4,5.3,4.9,9.3,10.1,9.3c0.3,0,0.6,0,0.9,0c7.4-0.6,14.4-1.5,20.9-2.6c0.3-0.1,0.7-0.1,1-0.2
			c9.5-1.6,17.8-3.7,24.9-6.3c10.9-3.9,17.9-8.5,21-13.7c12.6-21.5,24.2-50.4,24.7-51.6c2.1-5.2-0.4-11.1-5.6-13.2
			s-11.1,0.4-13.2,5.7c-0.1,0.1-2.9,7.2-7.2,16.8c-2.5,5.4-5.4,11.7-8.5,17.9c-0.2,0.3-0.3,0.6-0.5,1c-2.2,4.4-4.6,8.7-6.9,12.8
			c-1,0.9-4.8,3.4-12.7,6.1c-1.4,0.4-2.8,0.9-4.2,1.3c-0.5,0.1-0.9,0.3-1.4,0.4c-6.6,1.8-14.2,3.2-22.7,4.3
			c-0.4,0.1-0.7,0.1-1.1,0.1c-3.2,0.4-6.6,0.8-10.1,1.1C225.7,234.1,221.6,239,222.1,244.6z"/>
	</g>
</g>
<g>
	<g>
		<path class="st4" d="M290.4,207.6c3.1,4.3,5.3,9.3,6.4,14.6c0.1,0.6,1.1,0.4,1-0.3c-1.1-5.6-3.5-10.8-6.8-15.3
			C290.7,207,290.6,207.3,290.4,207.6z"/>
	</g>
</g>
<g>
	<g>
		<path class="st4" d="M241.4,232.6c3.2,5,10.8,5.1,15.9,3.1c4-1.6,7.2-4.4,9.3-7.9c-0.5,0.1-0.9,0.3-1.4,0.4
			c-1.8,2.7-4.3,4.8-7.3,6.2c-4.6,2.1-12.1,2.6-15.4-1.9C242.1,232.5,241.8,232.5,241.4,232.6z"/>
	</g>
</g>
<g>
	<g>
		<path class="st4" d="M240.4,238.3c6.1,2.2,11,7.1,13.5,13c0.3-0.1,0.7-0.1,1-0.2c-2.5-6.3-7.7-11.4-14.2-13.8
			C240.1,237.1,239.9,238.1,240.4,238.3z"/>
	</g>
</g>
<g>
	<g>
		<path class="st5" d="M284,220.4c2.2,1.1,4,2.7,5.4,4.7c0.4,0.5-0.5,1-0.9,0.5c-1.3-1.9-3-3.3-5.1-4.3
			C282.9,221,283.4,220.2,284,220.4L284,220.4z"/>
	</g>
</g>
<g>
	<g>
		<g>
			<g>
				<g>
					<g>
						<g>
							<path class="st0" d="M286,277.9c0,0,8.3,16,26.9,12.5c0.3,0,0.5-0.1,0.8-0.1c6.4-1.2,13.5-3,21.2-5.8
								c0.2-0.1,0.5-0.2,0.7-0.3c5.7-2,11.8-4.6,18-7.7c0,0-1.3-3-2.4-7.5c-0.1-0.3-0.1-0.5-0.2-0.8c-0.9-3.8-1.7-8.6-1.6-13.8
								c0-0.2,0-0.5,0-0.8c0-2.1,0.3-4.2,0.6-6.4c0.2-1.2,0.6-2.5,1-3.8c0.1-0.2,0.2-0.5,0.2-0.7c0.2-0.6,0.5-1.3,0.7-1.9
								c1.9-4.7,4.7-10.1,7.9-15.5c0.1-0.2,0.3-0.4,0.4-0.7c2.6-4.3,5.4-8.6,8-12.6c0.1-0.2,0.3-0.4,0.4-0.6c2-3,4-5.9,5.8-8.5
								c0.2-0.3,0.4-0.5,0.6-0.8c0.4-0.6,0.8-1.2,1.2-1.7c0.4-0.6,0.8-1.1,1.2-1.7c0.1-0.2,0.3-0.4,0.5-0.6c2-2.9,3.6-4.9,3.9-6.2
								c0.3-1,0.5-2.1,0.7-3.1c0-0.3,0.1-0.5,0.1-0.8c0.1-0.6,0.1-1.3,0.1-1.9c0-0.3,0-0.7,0-1c0-0.7-0.1-1.3-0.3-2
								c-0.1-0.3-0.2-0.7-0.3-1c-0.1-0.3-0.2-0.5-0.3-0.8c-0.1-0.2-0.2-0.4-0.3-0.6c-0.9-1.7-2.3-3.4-4.5-5
								c-0.2-0.1-0.4-0.3-0.6-0.4c-0.3-0.2-0.6-0.4-0.9-0.6c-0.3-0.2-0.7-0.4-1-0.6c-0.8-0.4-1.7-0.9-2.6-1.3
								c-1.2-0.6-2.3-1.1-3.3-1.6c0,0-0.1,0-0.1-0.1c-0.1,0-0.1-0.1-0.2-0.1c-1.8-1-3.3-1.9-4.5-2.8c-0.3-0.2-0.5-0.4-0.8-0.6
								c-1-0.8-1.8-1.5-2.5-2.1c-0.2-0.2-0.4-0.4-0.5-0.5c-1.9-2.1-2.3-3.4-2.3-3.4l-14.5,0.4l-1,0l-8.3,0.2c0,0-3.5,1.8-7.4,2.7
								c-0.4,0.1-0.8,0.2-1.2,0.3c-0.5,0.1-1,0.2-1.5,0.2c-0.3,0-0.6,0.1-0.9,0.1c-0.3,0-0.7,0-1,0c-3.5-0.1-6.4-0.4-8.5,1.2
								c-0.3,0.2-0.5,0.4-0.8,0.7c-0.7,0.7-1.3,1.7-1.8,3.1c-0.1,0.3-0.2,0.6-0.3,0.9c0,0.1,0,0.2-0.1,0.3c0,0.1-0.1,0.3-0.1,0.5
								c0,0.2-0.1,0.3-0.1,0.5c-0.5,2.5-0.4,5.2-0.5,7.6c0,1.1-0.1,2.2-0.3,3.1c0,0.2-0.1,0.5-0.2,0.7c-0.2,0.8-0.6,1.5-1.1,2.1
								c-1.4,1.6-4,3.4-6.1,6c-0.1,0.1-0.2,0.2-0.3,0.3c-0.1,0.2-0.3,0.4-0.4,0.6c-0.1,0.1-0.1,0.1-0.2,0.2c-1.1,1.5-2,3.3-2.5,5.4
								c0,0.1-0.1,0.2-0.1,0.4c0,0.2-0.1,0.4-0.1,0.5c0,0.1,0,0.1,0,0.2c-0.1,0.5-0.1,1-0.1,1.5c-0.1,1.6,0.1,3.2,0.4,4.8
								c0,0.3,0.1,0.6,0.2,0.9c0.2,1,0.5,2,0.8,3c0.1,0.4,0.2,0.8,0.3,1.1c0.3,1.1,0.7,2.3,1.1,3.4c0.1,0.2,0.1,0.5,0.2,0.7
								c0.1,0.3,0.2,0.6,0.3,0.9l0,0c0.1,0.4,0.2,0.8,0.4,1.2l0,0c0.4,1.3,0.7,2.5,0.9,3.8c0.1,0.3,0.1,0.6,0.1,1
								c0.1,0.8,0.2,1.5,0.2,2.2c0.1,2.5-0.5,5.9-1.4,9.6c0,0.2-0.1,0.4-0.1,0.6c0,0.1,0,0.1,0,0.1c-0.4,1.7-0.9,3.5-1.5,5.3
								c-0.1,0.4-0.2,0.8-0.4,1.2l0,0c-0.8,2.6-1.7,5.2-2.7,7.7c-0.1,0.3-0.2,0.6-0.3,0.8c-0.9,2.2-1.7,4.4-2.5,6.3
								c-0.5,1.3-1,2.5-1.5,3.7l0,0v0c-0.4,0.9-0.7,1.7-1,2.5c0,0.1,0,0.1-0.1,0.2l0,0l0,0l0,0l0,0c-0.1,0.2-0.1,0.4-0.2,0.5
								C283.7,282.1,286,277.9,286,277.9z"/>
						</g>
					</g>
				</g>
			</g>
		</g>
	</g>
</g>
<g>
	<path class="st4" d="M317.3,261.5c3.4-1.3,7.2-1.1,10.7-0.4c3.8,0.7,7.5,2,10.9,3.8c1.9,1,4.1,2.4,5.8,3.7c-0.3,0-0.6,0.1-0.9,0.2
		c-4-2.9-8.8-5.3-13.5-6.5c-3.4-0.9-7.1-1.4-10.6-0.7c-3.7,0.8-6.5,3.2-8.1,6.6c-0.6,1.4-1.1,2.8-1.4,4.2c-0.2,0-0.4,0-0.6,0
		C310.3,267.6,312.4,263.4,317.3,261.5z"/>
</g>
<g>
	<g>
		<path class="st4" d="M291.8,261.5c3.3,0.9,6.2,3.2,7.8,6.4c0.5,1,1,2.2,1.2,3.5c0.2,0,0.5,0.1,0.7,0.1c-0.1-1-0.4-2-0.8-2.9
			c-1.5-3.9-4.8-6.7-8.6-7.8C292,261.1,291.9,261.3,291.8,261.5z"/>
	</g>
</g>
<g>
	<g>
		<g>
			<path class="st4" d="M342.7,162.8c-0.5,0-0.4-0.8,0.1-0.7C343.2,162.1,343.2,162.9,342.7,162.8L342.7,162.8z"/>
		</g>
	</g>
</g>
<g>
	<g>
		<g>
			<path class="st5" d="M355.1,102c0,0,1.1-16.2,11.4-16.4c10.3-0.2,8.1,11.7,8.1,11.7s6-3.4,4.3,4.2c-1.6,7.6-16.1,6.4-16.1,6.4
				L355.1,102z"/>
		</g>
	</g>
</g>
<g>
	<g>
		<g>
			<g>
				<g>
					<g>
						<path class="st6" d="M355.8,98.4c0,0,8.6,2.3,11.4,9.7c0,0-1.2,1.6-4.1,2c0,0-1.2-5-7.9-8C355.1,102,354.2,99.6,355.8,98.4z"
							/>
					</g>
				</g>
			</g>
		</g>
	</g>
</g>
<g>
	<g>
		<g>
			<g>
				<g>
					<g>
						<g>
							<path class="st5" d="M317.9,156.9c7.2,2,31.6,4.3,50.6-3.8c-0.1-3.3,0.2-7,0.9-11.3c1.7-10.1,3-38.7-17.9-41.9
								s-37.1,10.5-32.6,29.4C320.8,137.1,319.5,147.3,317.9,156.9z"/>
						</g>
					</g>
				</g>
			</g>
		</g>
	</g>
</g>
<g>
	<g>
		<g>
			<g>
				<g>
					<g>
						<g>
							<g>
								<g>
									<g>
										<g>
											<g>
												<g>
													<g>
														<g>
															<g>
																<g>
																	<path class="st7" d="M324.6,128.9c0,0-2.5,0.1-3.1,3.2c-0.6,3.1,0.8,8.4,3.9,7.9
																		C328.7,139.6,324.6,128.9,324.6,128.9z"/>
																</g>
															</g>
														</g>
													</g>
												</g>
											</g>
										</g>
									</g>
								</g>
							</g>
						</g>
					</g>
					<g>
						<g>
							<g>
								<g>
									<g>
										<g>
											<g>
												<g>
													<g>
														<path class="st8" d="M324.3,145.3c-2.4,0-4.3-1.9-4.3-4.3s1.9-4.3,4.3-4.3c2.4,0,4.3,1.9,4.3,4.3
															S326.7,145.3,324.3,145.3z M324.3,138c-1.7,0-3,1.4-3,3.1c0,1.7,1.4,3.1,3.1,3c1.7,0,3-1.4,3-3.1
															C327.3,139.3,326,138,324.3,138z"/>
													</g>
												</g>
											</g>
										</g>
									</g>
								</g>
							</g>
						</g>
					</g>
					<g>
						<g>
							<g>
								<g>
									<g>
										<g>
											<g>
												<g>
													<g>
														<g>
															<g>
																<g>
																	<line class="st9" x1="332.2" y1="153.6" x2="332.2" y2="153.6"/>
																</g>
															</g>
														</g>
													</g>
												</g>
											</g>
										</g>
									</g>
								</g>
							</g>
						</g>
						<g>
							<g>
								<g>
									<g>
										<g>
											<g>
												<g>
													<g>
														<g>
															<g>
																<g>
																	<path class="st10" d="M357.8,163.4c0,0-4.6,7.9-13.8,8.8c-11.7,1.2-12.8-3.9-12.8-3.9c0.6-1.6,0.9-3.1,1.1-4.8
																		c0.1-0.6,0.1-1.3,0.2-2c0.1-1.8,0.1-3.9-0.1-6.2c0-0.6-0.1-1.1-0.1-1.7v-0.1c8.1-1.6,14.9-4.9,19.6-10.6l1.2-0.7
																		l0.8-0.5l0.1,0.5l-0.2,1.5C352.8,150.8,354.2,156.7,357.8,163.4z"/>
																</g>
															</g>
														</g>
													</g>
												</g>
											</g>
										</g>
									</g>
								</g>
							</g>
						</g>
					</g>
					<g>
						<g>
							<g>
								<g>
									<g>
										<g>
											<g>
												<g>
													<g>
														<g>
															<g>
																<g>
																	<path class="st5" d="M346,148.9c-1.9,3.8-6.1,10.4-13.6,12.6c0.1-1.8,0.1-3.9-0.1-6.2c0-0.6-0.1-1.1-0.1-1.7
																		c0.2,0,0.3,0.1,0.5,0.1C337.1,154.2,342,152.2,346,148.9z"/>
																</g>
															</g>
														</g>
													</g>
												</g>
											</g>
										</g>
									</g>
								</g>
							</g>
						</g>
					</g>
					<g>
						<g>
							<g>
								<g>
									<g>
										<g>
											<g>
												<g>
													<g>
														<g>
															<g>
																<g>
																	<path class="st10" d="M364.2,130.6c0.1,4.4-3.5,9.8-9.2,10.1h0l0,0l-0.1,0c-0.1,0.2-0.2,0.5-0.3,0.8
																		c0,0.1-0.1,0.2-0.1,0.3c0,0,0,0,0,0c-3.4,7.5-13.9,12.1-19.6,12.4c-2,0.1-3.4-0.3-3.9-0.4
																		c-6.1-1.2-7.4-9.4-6.6-15.7c0.1-0.9,0.3-1.8,0.5-2.6c0-0.1,0-0.1,0-0.2c0,0-2.2-8.7-2.8-12.6
																		c-1.1-7.4,3-15,19.3-16.9s20.4,8.2,21.6,13.5c0.2,0.9,0.1,6.2-0.7,7.1C363.8,127.4,364.2,129.2,364.2,130.6z"/>
																</g>
															</g>
														</g>
													</g>
												</g>
											</g>
										</g>
									</g>
								</g>
							</g>
						</g>
					</g>
					<g>
						<g>
							<g>
								<g>
									<g>
										<g>
											<g>
												<g>
													<path class="st5" d="M326.1,132.9c0.2,1.2,0.9,2.1,1.5,2s1-1.2,0.8-2.4c-0.2-1.2-0.9-2.1-1.5-2
														S325.9,131.7,326.1,132.9z"/>
												</g>
											</g>
										</g>
									</g>
								</g>
							</g>
						</g>
						<g>
							<g>
								<g>
									<g>
										<g>
											<g>
												<g>
													<g>
														<path class="st5" d="M330.4,131.6c0.1,0,0.1-0.1,0.1-0.1c0.1-0.2,0-0.4-0.1-0.4c-0.1-0.1-3.2-1.8-5.6,0.3
															c-0.1,0.1-0.1,0.3,0,0.5s0.3,0.1,0.5,0c2.1-1.8,4.9-0.2,4.9-0.2C330.2,131.6,330.4,131.6,330.4,131.6z"/>
													</g>
												</g>
											</g>
										</g>
									</g>
								</g>
							</g>
						</g>
					</g>
					<g>
						<g>
							<g>
								<g>
									<g>
										<g>
											<g>
												<path class="st5" d="M336.7,131.2c0.2,1.2,0.9,2.1,1.5,2s1-1.2,0.8-2.4c-0.2-1.2-0.9-2.1-1.5-2S336.5,130,336.7,131.2z"
													/>
											</g>
										</g>
									</g>
								</g>
							</g>
						</g>
						<g>
							<g>
								<g>
									<g>
										<g>
											<g>
												<g>
													<g>
														<path class="st5" d="M341.6,130.2c0.1,0,0.1-0.1,0.2-0.1c0.1-0.1,0.1-0.4-0.1-0.4c-0.1-0.1-3-2.2-5.6-0.4
															c-0.1,0.1-0.2,0.3-0.1,0.4s0.3,0.2,0.5,0.1c2.3-1.5,4.9,0.4,4.9,0.4C341.4,130.2,341.5,130.3,341.6,130.2z"/>
													</g>
												</g>
											</g>
										</g>
									</g>
								</g>
							</g>
						</g>
					</g>
					<g>
						<g>
							<g>
								<path class="st7" d="M332.1,144.5c0.2,0,0.4,0,0.6-0.1c2-0.4,3.1-2.4,3.2-2.5c0.2-0.3,0.1-0.7-0.2-0.8
									c-0.3-0.2-0.7-0.1-0.8,0.2c0,0-1,1.6-2.4,1.9c-1.5,0.3-2.1-0.5-2.2-0.5c-0.2-0.3-0.6-0.3-0.9-0.1c-0.3,0.2-0.3,0.6-0.1,0.9
									C329.3,143.5,330.2,144.7,332.1,144.5z"/>
							</g>
						</g>
					</g>
					<g>
						<g>
							<g>
								<g>
									<g>
										<g>
											<g>
												<g>
													<g>
														<g>
															<g>
																<g>
																	<g>
																		<path class="st7" d="M354.4,137.4c0.2,0,0.4-0.2,0.5-0.5c0.7-4.1,5.6-6,5.6-6.1c0.3-0.1,0.5-0.5,0.3-0.8
																			c-0.1-0.3-0.5-0.5-0.8-0.3c-0.2,0.1-5.6,2.1-6.4,7c0,0.3,0.2,0.6,0.5,0.7C354.3,137.4,354.3,137.4,354.4,137.4z"
																			/>
																	</g>
																</g>
															</g>
														</g>
													</g>
												</g>
											</g>
										</g>
									</g>
								</g>
							</g>
						</g>
					</g>
					<g>
						<g>
							<g>
								<g>
									<g>
										<g>
											<g>
												<g>
													<g>
														<g>
															<g>
																<g>
																	<g>
																		<path class="st7" d="M359.5,134.9c0.1,0,0.1,0,0.2-0.1c0.3-0.2,0.4-0.5,0.2-0.8c0-0.1-1.2-1.8-3.6-1.7
																			c-0.3,0-0.6,0.3-0.5,0.6c0,0.3,0.3,0.6,0.6,0.6c1.7-0.1,2.5,1.1,2.5,1.1C359,134.9,359.2,135,359.5,134.9z"/>
																	</g>
																</g>
															</g>
														</g>
													</g>
												</g>
											</g>
										</g>
									</g>
								</g>
							</g>
						</g>
					</g>
					<g class="st11">
						<g>
							<g>
								<g>
									<g>
										<g>
											<g>
												<g>
													<g>
														<g>
															<g>
																<g>
																	<path class="st7" d="M327.6,136.9c0,0.6-1.4,1.2-3.3,1.3c0.1-0.9,0.3-1.8,0.5-2.6
																		C326.4,135.8,327.6,136.3,327.6,136.9z"/>
																</g>
															</g>
														</g>
													</g>
												</g>
											</g>
										</g>
									</g>
								</g>
							</g>
						</g>
					</g>
					<g class="st11">
						<g>
							<g>
								<g>
									<g>
										<g>
											<g>
												<g>
													<g>
														<g>
															<g>
																<g>
																	<path class="st7" d="M337.7,136.7c0,0.7,1.9,1.3,4.1,1.3s4.1-0.6,4.1-1.4c0-0.7-1.9-1.3-4.1-1.3
																		C339.5,135.4,337.7,136,337.7,136.7z"/>
																</g>
															</g>
														</g>
													</g>
												</g>
											</g>
										</g>
									</g>
								</g>
							</g>
						</g>
					</g>
					<g>
						<g>
							<g>
								<g>
									<g>
										<g>
											<g>
												<g>
													<g>
														<g>
															<g>
																<g>
																	<g>
																		<path class="st7" d="M355,140.8L355,140.8L355,140.8l-0.1,0c-0.1,0.2-0.2,0.5-0.3,0.8c0,0.1-0.1,0.2-0.1,0.3
																			c0,0,0,0,0,0c-0.6-0.1-1.5-0.3-2.2-0.8c-0.4-0.3-0.9-0.7-1.2-1.2c-0.2-0.3-0.1-0.6,0.2-0.8
																			c0.3-0.2,0.6-0.1,0.8,0.2c0.4,0.6,0.9,1,1.4,1.2c0.4,0.2,0.7,0.2,1,0.3C354.7,140.7,354.9,140.7,355,140.8z"/>
																	</g>
																</g>
															</g>
														</g>
													</g>
												</g>
											</g>
										</g>
									</g>
								</g>
							</g>
						</g>
					</g>
					<g>
						<g>
							<g>
								<g>
									<g>
										<g>
											<g>
												<g>
													<g>
														<path class="st8" d="M353.6,140.6c0.4,0.1,0.9,0.2,1.3,0.2c0,0,0,0,0,0.1c0,1.7,1.4,3.1,3.1,3c1.7,0,3-1.4,3-3.1
															c0-1.5-1.1-2.8-2.6-3c-0.4-0.4-0.4-0.9,0-1.3c2.1,0.2,3.8,2.1,3.9,4.3c0,2.4-1.9,4.3-4.3,4.3c-2.4,0-4.3-1.9-4.3-4.3
															C353.5,140.8,353.5,140.7,353.6,140.6z"/>
													</g>
												</g>
											</g>
										</g>
									</g>
								</g>
							</g>
						</g>
					</g>
					<g>
						<g>
							<g>
								<g>
									<g>
										<g>
											<g>
												<g>
													<g>
														<g>
															<g>
																<g>
																	<path class="st7" d="M333.6,147.2c0.8-0.2,1.3-0.8,1.3-0.8c0.1-0.2,0.1-0.4-0.1-0.5c-0.2-0.1-0.4-0.1-0.5,0.1
																		c0,0-0.6,0.8-1.7,0.5c-0.2-0.1-0.4,0.1-0.5,0.3s0.1,0.4,0.3,0.5C332.9,147.3,333.3,147.3,333.6,147.2z"/>
																</g>
															</g>
														</g>
													</g>
												</g>
											</g>
										</g>
									</g>
								</g>
							</g>
						</g>
					</g>
					<g>
						<g>
							<g>
								<path class="st5" d="M358.1,110.4c-3.6-3.5-8.5-6.3-14.4-5.9c-8.2,0.7-15.7,3.7-19.8,8.2c-2,2.2-3.2,4.7-3.2,7.5
									c-0.3,8.5,1.5,6.8,1.5,6.8s0-0.2,0.2-2l0,0c0.1-1.1,0.4-2.8,0.8-5.4c0.9-6.2,20.5-7.3,19.3-3.3c0,0,0,0.5,0,1.3
									c0.1,0.8,0.3,1.9,0.9,3.1c0.2,0,0.3,0,0.5,0.1c2,0.3,3.6,0.8,4.9,1.5c0,0,0,0,0,0c0.2,0.1,3.2,2.2,2.8,5.3
									c-0.4,3.2-1.5,7.4,0.7,6.6c2.2-0.8,2.8-3.5,2.8-3.5l0,0c1.1-1.5,2.5-2.9,4.6-3.7C360.4,121.5,360.5,115.7,358.1,110.4z"/>
							</g>
						</g>
					</g>
					<g>
						<g>
							<g>
								<path class="st5" d="M359.4,114.1c-5.9-1.9-15.2,2.7-16.9,3.6c0.1,0.8,0.3,1.9,0.9,3.1c0.2,0,0.3,0,0.5,0.1
									c2,0.3,3.6,0.8,4.9,1.5c0,0,0,0,0,0c0.2,0.1,3.2,2.2,2.8,5.3c-0.4,3.2-3,20.4,0.4,23c6.8,5.3,4.1-19.9,4.1-19.9l0,0
									c1.1-1.5,1.6-2.9,3.8-3.6C361.9,122.5,361,118.2,359.4,114.1z"/>
							</g>
						</g>
					</g>
					<g>
						<g>
							<g>
								<path class="st5" d="M358,113.8c0,0,3.6,5,1.7,13.3c0,0,2.8-0.8,4.2-0.3c1.4,0.5,2.6-4.5,1.2-9c-1.5-4.5-8-9.9-8-9.9
									S356.8,112.3,358,113.8z"/>
							</g>
						</g>
					</g>
					<g>
						<g>
							<g>
								<g>
									<g>
										<g>
											<g>
												<g>
													<g>
														<g>
															<g>
																<g>
																	<path class="st7" d="M331.5,138.9c-0.1,0-0.2,0-0.3-0.1l-2.3-1.3c-0.1-0.1-0.2-0.2-0.3-0.4c0-0.2,0.1-0.3,0.2-0.4
																		c1.7-1.1,2.8-2.7,3.2-5.1c0-0.3,0.3-0.4,0.6-0.4s0.4,0.3,0.4,0.6c-0.5,2.4-1.4,4.1-3,5.3l1.6,0.9
																		c0.2,0.1,0.3,0.4,0.2,0.7C331.8,138.8,331.6,138.8,331.5,138.9z"/>
																</g>
															</g>
														</g>
													</g>
												</g>
											</g>
										</g>
									</g>
								</g>
							</g>
						</g>
					</g>
					<g>
						<g>
							<g>
								<g>
									<g>
										<g>
											<g>
												<path class="st8" d="M332.9,132.9c-0.2-3.2,2.2-6.1,5.5-6.3s6.1,2.2,6.4,5.5s-2.2,6.1-5.5,6.4
													C336,138.6,333.2,136.1,332.9,132.9z M333.9,132.8c0.2,2.7,2.6,4.8,5.4,4.6c2.7-0.2,4.8-2.6,4.6-5.4
													c-0.2-2.7-2.6-4.8-5.4-4.6C335.7,127.7,333.7,130.1,333.9,132.8z"/>
											</g>
										</g>
									</g>
								</g>
							</g>
						</g>
						<g>
							<g>
								<g>
									<g>
										<g>
											<g>
												<path class="st8" d="M319,133.9c-0.2-3.2,2.2-6.1,5.5-6.3s6.1,2.2,6.4,5.5s-2.2,6.1-5.5,6.4
													C322,139.6,319.2,137.2,319,133.9z M319.9,133.9c0.2,2.7,2.6,4.8,5.4,4.6c2.7-0.2,4.8-2.6,4.6-5.4
													c-0.2-2.7-2.6-4.8-5.4-4.6C321.7,128.7,319.7,131.1,319.9,133.9z"/>
											</g>
										</g>
									</g>
								</g>
							</g>
						</g>
						<g>
							<g>
								<g>
									<g>
										<g>
											<g>
												<path class="st8" d="M356.6,129.9l0.5-0.7c-0.2-0.2-6.5-4.1-14-0.7l0.4,0.8C350.5,126.1,356.6,129.9,356.6,129.9z"/>
											</g>
										</g>
									</g>
								</g>
							</g>
						</g>
						<g>
							<g>
								<g>
									<g>
										<g>
											<g>
												<path class="st8" d="M333.1,132.8l0.5-0.8c-0.7-0.4-2.4-1-3.7,0.3l0.6,0.7C331.7,131.9,333.1,132.8,333.1,132.8z"/>
											</g>
										</g>
									</g>
								</g>
							</g>
						</g>
					</g>
					<g>
						<g>
							<g>
								<g>
									<g>
										<g>
											<g>
												<g>
													<g>
														<g>
															<g>
																<path class="st5" d="M336.5,125.9c-1,0.8-2.5-0.4-1.8-1.6c0.4-0.6,1-1.1,2-1.5c4.3-1.4,7.7,1.2,7.7,1.2
																	s-4.6,0.1-6.7,1.1C337.2,125.5,336.8,125.7,336.5,125.9z"/>
															</g>
														</g>
													</g>
												</g>
											</g>
										</g>
									</g>
								</g>
							</g>
						</g>
					</g>
					<g>
						<g>
							<g>
								<path class="st5" d="M329.3,127.1c1.2,0.5,2.2-1.1,1.3-2c-0.5-0.5-1.2-0.8-2.3-0.9c-4.5-0.2-5.6,2.8-5.6,2.8s3-0.7,5.3-0.3
									C328.5,126.8,328.9,126.9,329.3,127.1z"/>
							</g>
						</g>
					</g>
				</g>
			</g>
		</g>
	</g>
</g>
<path class="st0" d="M361,165.5c0,0-0.2-11.1-7.1-13.1c0,0-5.7,7.8-21.5,6.2c0,0-4,0.5-5.2,8.3c0,0,0.6,8.8,14.5,7.6
	C355.5,173.4,361,165.5,361,165.5z"/>
<g>
	<path class="st4" d="M352.2,154.7c3,4,4.1,8.8,4.8,13.7c0.1,0.6-0.9,0.9-1,0.2c-0.7-4.8-1.8-9.5-4.7-13.4
		C351,154.7,351.9,154.2,352.2,154.7L352.2,154.7z"/>
</g>
<g>
	<path class="st4" d="M346.7,157.5c2,4.5,2.6,9.4,2.5,14.3c0,0.6-1,0.6-1,0c0.1-4.7-0.4-9.5-2.4-13.8
		C345.6,157.4,346.5,156.9,346.7,157.5L346.7,157.5z"/>
</g>
<g>
	<path class="st4" d="M341.1,158.9c0.2,4.9,0.5,9.7,0.2,14.6c0,0.6-1,0.6-1,0c0.2-4.9-0.1-9.7-0.2-14.6
		C340.1,158.3,341.1,158.3,341.1,158.9L341.1,158.9z"/>
</g>
<g>
	<path class="st4" d="M334.7,159.2c-1.5,4.1-2.3,8.3-2.3,12.6c0,0.6-1,0.6-1,0c0-4.4,0.8-8.7,2.4-12.9
		C334,158.4,334.9,158.6,334.7,159.2L334.7,159.2z"/>
</g>
<g>
	<path class="st4" d="M359.1,167.9c-6.1,3.5-12.4,6.7-19.6,6.5c-4.9-0.2-11-1.8-12.8-6.9c-0.2-0.6,0.8-0.8,1-0.2
		c1.8,5.1,8.4,6.3,13.1,6.2c6.6-0.1,12.2-3.2,17.8-6.4C359.2,166.7,359.7,167.5,359.1,167.9L359.1,167.9z"/>
</g>
<g>
	<g>
		<g>
			<path class="st4" d="M357.4,201.4c1.1,3.8,2.7,7.4,4.5,10.9c0.2-0.2,0.3-0.4,0.5-0.6c-4.2-8.4-7.1-17.8-6.1-27.2
				c0.6-6.1,3-12,7-16.6c-0.2-0.1-0.3-0.2-0.5-0.4c0,0-0.1-0.1-0.1-0.1c-1.2,1.4-2.4,3-3.3,4.7C354.4,181.1,354.5,191.8,357.4,201.4
				z"/>
		</g>
	</g>
	<g>
		<g>
			<path class="st4" d="M347.3,173.1c0.5,2.8,1,5.9-0.4,8.5c-1,2-3,3.3-5.3,3.1c-5.8-0.4-7.3-6.9-7.7-11.6c0-0.5,0.7-0.6,0.7-0.1
				c0.3,4.3,1.4,10,6.4,11c2.3,0.5,4.4-0.8,5.4-2.9c1.1-2.5,0.6-5.2,0.2-7.8C346.5,172.8,347.2,172.7,347.3,173.1L347.3,173.1z"/>
		</g>
	</g>
	<g>
		<g>
			<path class="st4" d="M308.3,185.7c1,0.6,2,1.2,3.1,1.8c1.8,1,3.7,1.8,5.7,2c4.2,0.4,6.4-2.9,6.6-6.8c0.3-4.3-0.9-8.9-2.4-12.9
				c-0.6-1.6-1.3-3.1-2.1-4.6c-0.3,0-0.6,0-0.8,0c1,1.7,1.8,3.6,2.5,5.4c1.4,3.8,2.5,8.2,2.1,12.3c-0.2,2-0.9,4.1-2.7,5.2
				c-1.9,1.1-4.3,0.6-6.2-0.2c-1.9-0.7-3.7-1.7-5.4-2.9C308.5,185.3,308.4,185.5,308.3,185.7z"/>
		</g>
		<g>
			<g>
				<path class="st8" d="M361.4,166.7c-6.7,7-10.3,17.1-19.3,21.7c-4,2.1-8.8,2.9-13.1,1.7c-2-0.5-3.9-1.5-5.3-3
					c-1.4-1.5-1.8-3.5-1.7-5.5c0.3-5.8,2.3-11.7,4.7-17c0.3-0.6,1.3-0.3,1,0.4c-2,4.4-3.4,9.1-4.2,13.9c-0.4,2.1-0.8,4.5,0.4,6.5
					c1.1,1.9,3.3,3.1,5.4,3.6c4.4,1.2,9.1,0.2,13-1.9c3.9-2.1,6.9-5.6,9.5-9.1c3-4.1,5.6-8.5,9.1-12.2
					C361.2,165.4,361.9,166.2,361.4,166.7L361.4,166.7z"/>
			</g>
		</g>
	</g>
	<g>
		<g>
			<path class="st4" d="M300,195.1c2,1.1,4.2,1.8,6.4,2.1c6.8,1,13.4-1.3,20-2.9c3.5-0.9,7.2-1.8,10.7-0.7c3.1,0.9,5.5,3.2,7.5,5.6
				c5,6,9,13,11.9,20.3c0.1-0.2,0.3-0.5,0.5-0.7l0,0c-0.7-1.6-1.4-3.2-2.2-4.8c-2.7-5.5-5.9-10.9-9.9-15.6c-1.8-2.1-3.9-4.1-6.4-5.1
				c-2.9-1.2-6.1-1-9.1-0.4c-6.9,1.4-13.6,4.2-20.8,3.8c-2.8-0.1-5.7-0.9-8.1-2.3C300.2,194.6,300.1,194.8,300,195.1z"/>
		</g>
	</g>
	<g>
		<g>
			<path class="st4" d="M331.5,218.8c4.1,8.4,9,16.2,14.8,23.5c0.1-0.3,0.1-0.6,0.2-0.9c-1.2-1.6-2.4-3.2-3.6-4.8
				c-3.9-5.5-7.4-11.4-10.4-17.4c-1.1-2.2-4-7.2-0.6-8.8c2.8-1.3,6.2,1.9,8.1,3.5c4.6,3.9,8.4,8.6,11.7,13.7
				c0.1-0.2,0.2-0.5,0.4-0.7c-0.5-0.7-0.9-1.4-1.4-2.1c-2-2.9-4.2-5.6-6.6-8.1c-2.2-2.3-4.6-4.7-7.4-6.2c-2-1.1-4.9-1.9-6.4,0.4
				C328.7,213.4,330.4,216.6,331.5,218.8z"/>
		</g>
	</g>
	<g>
		<g>
			<path class="st4" d="M298.3,203.2c0,0.2,0,0.5,0.1,0.7c2.9,0,5.7,0.4,8.5,1c4.6,1.1,9.7,3.1,13,6.8c1.6,1.8,2.6,4.1,2.3,6.5
				c-0.4,2.7-2.3,5-4.5,6.5c-4.2,2.9-9.8,4.3-14.9,4.6c0,0-0.1,0-0.1,0c0,0.2-0.1,0.5-0.1,0.7c1.1-0.1,2.2-0.2,3.3-0.3
				c5-0.8,11-2.5,14.6-6.4c1.7-1.8,2.8-4.2,2.6-6.8c-0.2-2.2-1.3-4.2-2.8-5.8c-3.6-3.8-9.1-5.8-14.1-6.9
				C303.5,203.5,300.9,203.2,298.3,203.2z"/>
		</g>
	</g>
	<g>
		<g>
			<path class="st4" d="M299.1,242.8c4-0.9,7.7-3.2,11.4-5.1c2.5-1.3,5-2.5,7.8-3c3.3-0.6,6.5,0.1,9.5,1.5
				c6.1,2.7,11.3,7.7,15.9,12.4c0.4,0.4,0.7,0.8,1.1,1.1c0-0.3,0.1-0.6,0.1-0.9c-0.7-0.7-1.4-1.5-2.1-2.2
				c-4.4-4.4-9.4-8.9-15.1-11.3c-2.8-1.2-5.8-1.8-8.8-1.4c-2.7,0.3-5.2,1.4-7.5,2.6c-3.9,2-7.7,4.5-11.9,5.5
				C299.3,242.3,299.2,242.6,299.1,242.8z"/>
		</g>
	</g>
	<g>
		<g>
			<path class="st4" d="M293,258.5c4.3-1.1,8.1-3.5,12-5.5c4.5-2.4,9.2-4,14.3-4c5.1,0,10.1,1.4,14.7,3.7c3.6,1.8,6.9,4.1,9.8,6.8
				c0-0.3,0-0.6,0-0.9c-7.1-6.3-16.2-10.7-25.9-10.3c-5,0.2-9.4,1.9-13.8,4.3c-3.5,1.9-7,4-10.9,5.1
				C293.3,258,293.2,258.2,293,258.5z"/>
		</g>
		<g>
			<g>
				<g>
					<path class="st5" d="M345.5,278.9c-5-20.3-0.9-41.9,10.4-59.3c2.6-3.9,5.5-7.7,8.9-11.1c0.4-0.4,1.1,0.2,0.7,0.7
						c-17.7,18-25.1,44.9-19,69.5C346.6,279.2,345.7,279.5,345.5,278.9L345.5,278.9z"/>
				</g>
			</g>
		</g>
	</g>
	<g>
		<g>
			<path class="st4" d="M366,177.8c0,0.1,0,0.3,0.1,0.4c0.5,2.9,2.8,5.1,5.6,5.9c3.9,1.1,7.2-0.4,10-2.8c-0.1-0.2-0.2-0.4-0.3-0.6
				c-2.4,2.1-5.2,3.4-8.5,2.9c-3.1-0.5-5.8-2.7-6.1-5.9c0-0.1,0-0.2,0-0.3c-0.1-2.2,0.8-4.2,2-6.1c-0.1-0.1-0.2-0.1-0.3-0.2
				c0,0-0.1,0-0.1-0.1c-0.1,0-0.1-0.1-0.2-0.1l0,0C366.7,173,365.8,175.3,366,177.8z"/>
		</g>
	</g>
</g>
<g>
	<path class="st5" d="M310.7,179.6c-0.4,2.6-1.1,5.2-2.8,7.3c-1.7,2.1-4,3.4-5.8,5.3c-4.8,5-3.7,13.7-1.4,19.6
		c0.2,0.6-0.7,0.9-1,0.3c-2.2-5.7-3.1-13.2,0.2-18.6c1.5-2.5,4.1-3.9,6.2-6c2.3-2.3,3.2-5.1,3.7-8.2
		C309.8,178.7,310.8,178.9,310.7,179.6L310.7,179.6z"/>
</g>
<g>
	<path class="st5" d="M300.7,212.3c-1.1,5.8-3.3,11.3-5.2,16.8c-0.2,0.6-1.2,0.3-1-0.3c2-5.5,4.1-11.1,5.2-16.8
		C299.9,211.4,300.8,211.7,300.7,212.3L300.7,212.3z"/>
</g>
<g>
	<g>
		<path class="st0" d="M261.5,241.4c0.5,5.3,4.9,9.3,10.1,9.3c0.3,0,0.6,0,0.9,0c9.3-0.8,17.3-1.5,24.1-2.1c0.4,0,0.8-0.1,1.2-0.1
			c3.6-0.3,6.9-0.6,10-1c0.5-0.1,0.9-0.1,1.4-0.1c2.3-0.2,4.4-0.5,6.4-0.7c0.3,0,0.7-0.1,1-0.1c1.8-0.2,3.5-0.4,5.1-0.7
			c0.3-0.1,0.6-0.1,1-0.1c4.5-0.7,7.9-1.4,10.6-2.2c0.4-0.1,0.7-0.2,1.1-0.4l0,0c1.9-0.6,3.4-1.3,4.7-2.1c3.2-1.9,6.3-4.3,9.4-6.9
			c0.3-0.3,0.7-0.6,1-0.9c1.7-1.5,3.4-3.1,5.1-4.7c0.4-0.4,0.8-0.8,1.2-1.2l0,0c4.8-4.9,9.2-10.1,13-15.1c0.2-0.2,0.4-0.5,0.5-0.7
			c7.9-10.3,13.1-19,13.5-19.8c0.4-0.6,0.6-1.3,0.9-1.9c0.1-0.3,0.2-0.7,0.3-1c0.9-4.2-0.9-8.7-4.8-11c-4.8-2.8-11.1-1.2-13.9,3.6
			c-0.1,0.1-4.5,7.6-11.2,16.6c-0.1,0.1-0.1,0.1-0.2,0.2l0,0c-0.1,0.1-0.1,0.1-0.2,0.2c-6.9,9.1-16,19.6-25.2,25.2
			c-0.4,0.2-1.3,0.6-3.7,1.1c-0.4,0.1-0.8,0.2-1.2,0.2c-2.1,0.4-5.2,0.9-9.5,1.4c-4.6,0.6-10.1,1.1-17,1.8l0,0
			c-0.8,0.1-1.7,0.1-2.6,0.2l0,0c-3.2,0.3-6.8,0.6-10.6,0.9l0,0c-0.7,0.1-1.4,0.1-2.1,0.2c-3.4,0.3-7,0.6-10.9,0.9
			C265.1,230.9,261,235.8,261.5,241.4z"/>
	</g>
</g>
<g>
	<g>
		<g>
			<path class="st4" d="M368.3,212c0.1,0.1,0.2,0.2,0.3,0.2c0.4,0.1,0.8-0.3,0.6-0.7c0,0,0,0,0,0c-3.6-5.6-1.5-12.7,3.3-16.9
				c3.1-2.7,7-4.1,11-4.8c0.1-0.3,0.2-0.7,0.3-1c-4.7,0.7-9.2,2.4-12.7,5.8C366.4,199.1,364.6,206.3,368.3,212z"/>
		</g>
	</g>
	<g>
		<g>
			<path class="st4" d="M353.7,198.5c2.4,9.9,2.6,20.1,0.6,30c0.4-0.4,0.8-0.8,1.2-1.2l0,0c1.7-9.6,1.4-19.5-0.9-29.1
				c-0.1-0.4-0.5-0.4-0.8-0.2c-0.1,0.1-0.1,0.1-0.2,0.2l0,0C353.7,198.3,353.7,198.4,353.7,198.5z"/>
		</g>
	</g>
	<g>
		<g>
			<path class="st4" d="M333.1,243.5c0.4-0.1,0.7-0.2,1.1-0.4l0,0c0.7-4.9,1.6-9.8,3.1-14.5c0.6-2.2,1.3-4.4,2.3-6.5
				c1.2-2.4,4.2-4.6,6.1-1.5c2.3,3.8,2.8,9.2,2.6,13.5c0.3-0.3,0.7-0.6,1-0.9c0-2.5-0.2-5.1-0.8-7.5c-0.5-2-1.1-4.6-2.4-6.2
				c-1.1-1.3-2.6-1.7-4.2-1.1c-1.9,0.7-2.9,2.6-3.6,4.4C335.5,229.3,334.1,236.4,333.1,243.5z"/>
		</g>
	</g>
	<g>
		<g>
			<path class="st4" d="M321.5,245.8c0.3-0.1,0.6-0.1,1-0.1c-1.9-6.9-1.2-14.4,2.1-21c-0.4,0.1-0.8,0.2-1.2,0.2
				C320.3,231.5,319.7,238.9,321.5,245.8z"/>
		</g>
	</g>
	<g>
		<g>
			<path class="st4" d="M296,228.8c8.6,2.7,15.9,9.1,19.5,17.8c0,0.1,0.1,0.2,0.1,0.3c0.2,0.6,1.2,0.3,1-0.3c0-0.1,0-0.1-0.1-0.2
				c-3.5-8.5-10.3-14.9-18.4-18C297.4,228.6,296.7,228.7,296,228.8z"/>
		</g>
	</g>
	<g>
		<g>
			<path class="st4" d="M269.6,235.1c3.8,1.9,7.5,3.7,11.4,5.4c1.2,0.5,2.4,1,3.6,1.5c2.7,1.1,10,4.9,11.6,0.3
				c0.6-1.9-0.6-3.7-1.8-5.1c-1.5-1.8-3.3-3.3-5.2-4.7c-1-0.7-2-1.4-3.1-2c-0.5,0.1-1,0.2-1.5,0.3c0.8,0.4,1.6,0.9,2.4,1.4
				c1.8,1.1,3.4,2.4,4.9,3.8c1.4,1.4,3.9,3.5,3.4,5.7c-0.8,3.1-4.9,1.4-6.9,0.7c-2.2-0.8-4.4-1.6-6.5-2.6c-0.3-0.1-0.5-0.2-0.8-0.4
				c-3.4-1.5-6.8-3.1-10.2-4.8C270.4,234.8,270,235,269.6,235.1z"/>
		</g>
	</g>
	<g>
		<g>
			<path class="st4" d="M296.6,248.5c0.4,0,0.8-0.1,1.2-0.1c0.9-1.7,2.4-2.9,4.8-2.9c1.9,0,3.6,0.8,5.1,1.9c0.5-0.1,0.9-0.1,1.4-0.1
				c-2.2-1.8-4.7-3.1-7.6-2.7C299,245,297.5,246.6,296.6,248.5z"/>
		</g>
	</g>
</g>
<g>
	<path class="st10" d="M246.6,251.4H270c0,0,4.6-1,9-5.5c1.4-1.4,2-3.4,2-5.4c0-0.4,0-0.7,0-1.1c-0.2-3.9-1.8-7.6-1.8-7.6
		s-3.6,1-8.4,2.8c-0.4,0.2-0.8,0.3-1.2,0.5C261.6,238.3,250.9,243.8,246.6,251.4z"/>
</g>
<g>
	<g>
		<path class="st5" d="M360.9,191.8c-10,10.8-20,21.5-30,32.3c-0.4,0.5-1.1-0.2-0.7-0.7c10-10.8,20-21.5,30-32.3
			C360.6,190.6,361.4,191.4,360.9,191.8L360.9,191.8z"/>
	</g>
</g>
<g>
	<g>
		<path class="st5" d="M330.6,224.1c-16.8,3.4-34,4.4-50.8,8.2c-0.6,0.1-0.9-0.8-0.3-0.9c16.7-3.8,34-4.8,50.8-8.2
			C330.9,223,331.2,224,330.6,224.1L330.6,224.1z"/>
	</g>
</g>
<g>
	<g>
		<path class="st5" d="M363.5,219.9c-7,7.4-14.5,14.7-22.9,20.6c-4.1,2.9-8.5,4.6-13.4,5.3c-4.7,0.7-9.4,1-14.1,1.5
			c-5.2,0.6-10.4,1.1-15.6,1.4c-0.6,0-0.6-0.9,0-1c5.6-0.3,11.2-0.9,16.8-1.6c6.1-0.7,12.5-0.7,18.4-2.7c6.1-2,11.2-6.7,16-10.9
			c4.9-4.2,9.6-8.8,14-13.5C363.3,218.8,364,219.5,363.5,219.9L363.5,219.9z"/>
	</g>
</g>
<g>
	<g>
		<path class="st5" d="M330.9,223.4c1.5,1.2,2.5,2.8,2.9,4.6c0.1,0.6-0.8,0.9-1,0.3c-0.4-1.7-1.3-3.1-2.6-4.2
			C329.7,223.8,330.4,223.1,330.9,223.4L330.9,223.4z"/>
	</g>
</g>
<g>
	<path class="st5" d="M349.6,260c0,0,9.4,18.3,4.5,32.7c-4.9,14.5-41.7,23.4-62.2,15c-20.4-8.4,2.3-51.9,2.3-51.9
		S309.1,268.9,349.6,260z"/>
</g>
<path class="st0" d="M279,418.3c2.8-4,26.7-24.8,26.7-24.8s4.5,3.9,4.1,7.9c-0.4,3.8-1.3,24.1-1.4,26.2l-2.8-0.1l-1.1-9.3
	c0,0-6.8,9.8-11.8,13s-20.9,1.8-24.8,1.1C264.2,431.6,276.3,422.3,279,418.3z"/>
<g>
	<g>
		<g>
			<path class="st10" d="M299.1,383.2l6.5,9.4c0,0,1.1,3-0.4,7.3s-6.7,11-11.6,15.9c-4.2,4.2-13,8.2-15.5,6.9
				c-2.5-1.3,5.4-9.8,7.8-14.3c2.4-4.5,3-8.3,4.2-12.1c1.4-4.4-4.7-12.2-4.7-12.2L299.1,383.2z"/>
		</g>
	</g>
</g>
<g>
	<path class="st5" d="M281,267.7c0,0-47.7,16.4-45.1,37.7s49.1,84.7,49.1,84.7l18.7-3.3l-9.2-34.7c-5.4-19.3-7.7-30.1-14.8-38.6
		l39.2-6C318.9,307.5,309.8,268.2,281,267.7z"/>
</g>
<g>
	<g>
		<path class="st12" d="M298,382.1c0.1,0,0.1,0,0.2,0c0.4-0.1,0.6-0.5,0.4-0.9c-0.1-0.2-9.1-25.3-13.6-43.4
			c-3.7-14.9-13.1-24.8-16.6-28c4.4-0.4,11.7-2,12-2c0.4-0.1,0.6-0.5,0.6-0.9c-0.1-0.4-0.5-0.6-0.9-0.6c-0.1,0-9.9,2.1-13.5,2.1
			c-0.3,0-0.6,0.2-0.7,0.5s0,0.6,0.2,0.8c0.1,0.1,13,10.5,17.4,28.4c4.5,18.2,13.6,43.3,13.6,43.5
			C297.4,381.9,297.7,382.1,298,382.1z"/>
	</g>
</g>
<g>
	<g>
		<path class="st12" d="M281.9,386c0,0,0.1,0,0.1,0l19.9-4.2c0.4-0.1,0.6-0.5,0.6-0.9c-0.1-0.4-0.5-0.6-0.9-0.6l-19.9,4.2
			c-0.4,0.1-0.6,0.5-0.6,0.9C281.2,385.8,281.5,386,281.9,386z"/>
	</g>
</g>
<g>
	<g>
		<path class="st0" d="M155.2,370.5c4.8-0.5,36.2,3.8,36.2,3.8s0,6-3.3,8.3c-3.1,2.2-18.9,14.9-20.6,16.2l-1.7-2.2l6.3-7
			c0,0-11.9,1.3-17.5-0.3s-15.1-14.6-17.1-17.9C135.4,368,150.4,371,155.2,370.5z"/>
	</g>
</g>
<g>
	<g>
		<g>
			<g>
				<g>
					<path class="st10" d="M198,365.5l-6,7.9c0,0-1.5,2.8-5.7,4.5s-12.7,2.2-19.6,1.7c-6-0.4-14.8-4.4-15.4-7.1
						c-0.7-2.7,10.9-2.4,15.9-3.5s8.2-3.2,11.9-4.8c4.2-1.8,9.4-8.3,9.4-8.3L198,365.5z"/>
				</g>
			</g>
		</g>
	</g>
</g>
<g>
	<g>
		<g>
			<g>
				<path class="st5" d="M183.1,359.6l16.4,10.5c0,0,12.9-11.9,28.7-26s30.7-30.7,36.9-43.2c0,0,46.8,20.2,72.2,15.2
					c10.6-2.1,15.3-9.3,17.3-17.1c0.3-1.1,0.5-2.3,0.7-3.5c1.5-9.8-0.7-19.2-0.7-19.2s-59.6-11-90.3-9.9c-2.1,0.1-4.1,0.2-6,0.4
					c-2.9,0.3-5.4,0.8-7.3,1.5c-3.9,1.4-8.8,5.5-14.1,11.3c-0.2,0.2-0.4,0.4-0.6,0.6C213.6,305.2,183.1,359.6,183.1,359.6z"/>
			</g>
		</g>
	</g>
</g>
<g>
	<g>
		<g>
			<path class="st13" d="M236.9,279.5c16.8,3,24.4-7.1,27.4-13.1c-2.1,0.1-4.1,0.2-6,0.4c-2.9,0.3-5.4,0.8-7.3,1.5
				C247.1,269.6,242.2,273.8,236.9,279.5z"/>
		</g>
	</g>
</g>
<g>
	<g>
		<g>
			<g>
				<g>
					<path class="st12" d="M246.1,327.4c0.1,0,0.3-0.1,0.4-0.1c11.5-9,17.8-22,19.2-25.3c6,3.5,24.5,9,25.4,9.2
						c0.4,0.1,0.8-0.1,0.9-0.5c0.1-0.4-0.1-0.8-0.5-0.9c-0.2-0.1-20.8-6.1-25.7-9.5c-0.2-0.1-0.4-0.2-0.6-0.1
						c-0.2,0.1-0.4,0.2-0.5,0.4c-0.1,0.1-6.1,15.5-19.1,25.5c-0.3,0.2-0.4,0.7-0.1,1C245.6,327.3,245.9,327.4,246.1,327.4z"/>
				</g>
			</g>
		</g>
	</g>
</g>
<g>
	<g>
		<g>
			<g>
				<g>
					<path class="st12" d="M203.1,366.5c0.2,0,0.4-0.1,0.6-0.3c0.2-0.3,0.1-0.8-0.2-1l-16.7-11c-0.3-0.2-0.8-0.1-1,0.2
						c-0.2,0.3-0.1,0.8,0.2,1l16.7,11C202.7,366.5,202.9,366.5,203.1,366.5z"/>
				</g>
			</g>
		</g>
	</g>
</g>
<g>
	<g>
		<g>
			<g>
				<g>
					<path class="st12" d="M199,363.7c0.2,0.2,0.4,0.2,0.6,0.2c0.2,0,0.3-0.1,0.5-0.2c0.3-0.3,27.5-27.3,40.7-38.9
						c11.9-10.5,19-26.8,20.5-30.3c4.9,1.9,35.2,13.5,63.5,15c12.8,0.7,20.8-3,25.3-6.3c2.1-1.5,3.6-3,4.7-4.3
						c0.3-1.1,0.5-2.3,0.7-3.5c-0.2,0.4-0.6,1.1-1.3,2c-1,1.3-2.6,3-4.9,4.7c-4.3,3.1-12,6.6-24.3,6c-30.4-1.7-63.4-15.1-63.7-15.2
						c-0.2-0.1-0.4-0.1-0.6,0s-0.3,0.2-0.4,0.4c-0.1,0.2-7.4,18.9-20.4,30.4c-13.2,11.7-40.5,38.7-40.7,39
						C198.8,363,198.8,363.5,199,363.7z"/>
				</g>
			</g>
		</g>
	</g>
</g>
<g>
	<g>
		<g>
			<g>
				<g>
					<path class="st12" d="M172.9,258.2h118.7c0.3,0,0.5-0.2,0.5-0.5l0,0c0-3.7-3-6.7-6.7-6.7H172.9c-0.3,0-0.5,0.2-0.5,0.5v6.2
						C172.4,258,172.6,258.2,172.9,258.2z"/>
				</g>
			</g>
		</g>
	</g>
</g>
<g>
	<g>
		<g>
			<path class="st5" d="M133.3,192.6l14.8,62.6c0.4,1.7,1.9,2.8,3.6,2.8h91.2c2.4,0,4.1-2.2,3.6-4.6l-14.8-62.6
				c-0.4-1.7-1.9-2.9-3.6-2.9h-91.2C134.5,188.1,132.7,190.3,133.3,192.6z"/>
		</g>
	</g>
</g>
<path class="st12" d="M151.9,251.9h81.6c0.3,0,0.5-0.2,0.5-0.5s-0.2-0.5-0.5-0.5h-81.6c-0.3,0-0.5,0.2-0.5,0.5
	S151.6,251.9,151.9,251.9z"/>
<g>
	<g>
		<path class="st2" d="M207.3,220.9c0.9,4.6,9.6,10.2,9.6,10.2s8-5.7,8.3-10.2c0.3-4.9-5.6-6.4-9.1-2.7
			C212,214.4,206.3,216,207.3,220.9z"/>
	</g>
</g>
<g>
	<g>
		<g>
			<path class="st0" d="M204.4,199.8l-0.3-3.6h2.9l-0.7-3.3h3.8l0.7,3.3h2.3l-0.7-3.3h3.8l0.7,3.3h3.3l0.3,3.6h-2.9l0.6,3h3.3
				l0.3,3.6H219l0.7,3.3h-3.8l-0.7-3.3h-2.3l0.7,3.3h-3.8l-0.7-3.3h-3.3l-0.3-3.6h2.9l-0.6-3H204.4z M212.1,202.8h2.3l-0.6-3h-2.3
				L212.1,202.8z"/>
		</g>
	</g>
</g>
<g>
	<g>
		<g>
			<g>
				<path class="st12" d="M224.5,188.1l15.8,70h2.7c2.4,0,4.1-2.2,3.6-4.6L231.7,191c-0.4-1.7-1.9-2.9-3.6-2.9H224.5z"/>
			</g>
		</g>
	</g>
</g>
<g>
	<g>
		<g>
			<g>
				<g>
					<path class="st12" d="M178.3,225.6c0.5,3.8,3.9,6.9,7.8,6.9s6.6-3.1,6.1-6.9c-0.5-3.8-3.9-6.9-7.8-6.9
						C180.6,218.6,177.9,221.7,178.3,225.6z"/>
				</g>
			</g>
		</g>
	</g>
</g>
<g>
	<g>
		<rect x="191.4" y="269.5" class="st2" width="9" height="149.8"/>
	</g>
</g>
<g>
	<g>
		<polygon class="st2" points="132.3,421.2 132.3,431.5 260.2,431.5 260.2,421.2 200.4,414.5 196.3,414.9 192.1,414.5 		"/>
	</g>
</g>
<g>
	<g>
		<rect x="132.3" y="425.3" class="st3" width="127.9" height="6.3"/>
	</g>
</g>
<g>
	<g>
		<polygon class="st3" points="191.4,285.1 191.4,292.3 200.4,295.1 200.4,285.1 		"/>
	</g>
</g>
<g>
	<g>
		<path class="st3" d="M85,285.1h220.7c1.5,0,2.6-1.2,2.6-2.6v-9.7h-226v9.7C82.4,283.9,83.6,285.1,85,285.1z"/>
	</g>
</g>
<g>
	<g>
		<g>
			<g>
				<path class="st2" d="M76.9,263.1v4.8c0,2.7,1.5,5,3.3,5h230.1c1.8,0,3.3-2.2,3.3-5v-4.8c0-2.7-1.5-5-3.3-5H80.2
					C78.4,258.1,76.9,260.3,76.9,263.1z"/>
			</g>
		</g>
	</g>
</g>
<g>
	<g>
		<g>
			<path class="st0" d="M110,258.2h8c0.9,0,1.6-0.7,1.6-1.6v-44.2c0-0.9-0.7-1.6-1.6-1.6h-8c-0.9,0-1.6,0.7-1.6,1.6v44.2
				C108.4,257.5,109.1,258.2,110,258.2z"/>
		</g>
	</g>
</g>
<g>
	<g>
		<g>
			<path class="st14" d="M111.5,236.2h4.9c0.8,0,1.4-0.6,1.4-1.4v-0.4c0-0.8-0.6-1.4-1.4-1.4h-4.9c-0.8,0-1.4,0.6-1.4,1.4v0.4
				C110.1,235.5,110.8,236.2,111.5,236.2z"/>
		</g>
	</g>
</g>
<g>
	<g>
		<g>
			<rect x="108.4" y="214.7" class="st14" width="11.1" height="1.8"/>
		</g>
	</g>
</g>
<g>
	<g>
		<g>
			<rect x="108.4" y="218.5" class="st14" width="11.1" height="1.8"/>
		</g>
	</g>
</g>
<g>
	<g>
		<g>
			<rect x="108.4" y="246.7" class="st14" width="11.1" height="1.8"/>
		</g>
	</g>
</g>
<g>
	<g>
		<g>
			<rect x="108.4" y="250.5" class="st14" width="11.1" height="1.8"/>
		</g>
	</g>
</g>
<g>
	<g>
		<g>
			<path class="st0" d="M121.1,258.2h8c0.9,0,1.6-0.7,1.6-1.6v-44.2c0-0.9-0.7-1.6-1.6-1.6h-8c-0.9,0-1.6,0.7-1.6,1.6v44.2
				C119.5,257.5,120.2,258.2,121.1,258.2z"/>
		</g>
	</g>
</g>
<g>
	<g>
		<g>
			<path class="st14" d="M122.6,236.2h4.9c0.8,0,1.4-0.6,1.4-1.4v-0.4c0-0.8-0.6-1.4-1.4-1.4h-4.9c-0.8,0-1.4,0.6-1.4,1.4v0.4
				C121.2,235.5,121.8,236.2,122.6,236.2z"/>
		</g>
	</g>
</g>
<g>
	<g>
		<g>
			<rect x="119.5" y="214.7" class="st14" width="11.1" height="1.8"/>
		</g>
	</g>
</g>
<g>
	<g>
		<g>
			<rect x="119.5" y="218.5" class="st14" width="11.1" height="1.8"/>
		</g>
	</g>
</g>
<g>
	<g>
		<g>
			<rect x="119.5" y="246.7" class="st14" width="11.1" height="1.8"/>
		</g>
	</g>
</g>
<g>
	<g>
		<g>
			<rect x="119.5" y="250.5" class="st14" width="11.1" height="1.8"/>
		</g>
	</g>
</g>
<g>
	<g>
		<g>
			<path class="st15" d="M91.6,256.7l7.9,1.3c0.8,0.1,1.7-0.4,1.8-1.3l7-43.6c0.1-0.9-0.4-1.6-1.3-1.8l-7.9-1.3
				c-0.8-0.1-1.7,0.4-1.8,1.3l-7,43.6C90.2,255.8,90.8,256.6,91.6,256.7z"/>
		</g>
	</g>
</g>
<g>
	<g>
		<g>
			<path class="st14" d="M95.5,235l7,1.1c0.2,0,0.3-0.1,0.3-0.2l0.4-2.6c0-0.2-0.1-0.3-0.2-0.3l-7-1.1c-0.2,0-0.3,0.1-0.3,0.2
				l-0.4,2.6C95.3,234.9,95.4,235,95.5,235z"/>
		</g>
	</g>
</g>
<g>
	<g>
		<g>
			
				<rect x="101.4" y="209.8" transform="matrix(0.1592 -0.9872 0.9872 0.1592 -126.5233 282.0764)" class="st14" width="1.8" height="11.1"/>
		</g>
	</g>
</g>
<g>
	<g>
		<g>
			
				<rect x="100.8" y="213.5" transform="matrix(0.1591 -0.9873 0.9873 0.1591 -130.7395 284.6592)" class="st14" width="1.8" height="11.1"/>
		</g>
	</g>
</g>
<g>
	<g>
		<g>
			
				<rect x="96.3" y="241.4" transform="matrix(0.1592 -0.9872 0.9872 0.1592 -162.0168 303.6295)" class="st14" width="1.8" height="11.1"/>
		</g>
	</g>
</g>
<g>
	<g>
		<g>
			
				<rect x="95.7" y="245.1" transform="matrix(0.1591 -0.9873 0.9873 0.1591 -166.2385 306.2029)" class="st14" width="1.8" height="11.1"/>
		</g>
	</g>
</g>
<g>
	<g>
		<rect x="76.9" y="265.5" class="st3" width="236.7" height="2.2"/>
	</g>
</g>
</svg>
